<svg width="512" height="512" viewBox="0 0 512 512" fill="none" xmlns="http://www.w3.org/2000/svg">
<path d="M256 42C175.6 42 112 150.32 112 256C112 361.68 175.6 470 256 470C336.4 470 400 361.68 400 256C400 150.32 336.4 42 256 42Z" fill="#4f46e5"/>
<path d="M256 54C329.48 54 388 155.6 388 256C388 356.4 329.48 458 256 458C182.52 458 124 356.4 124 256C124 155.6 182.52 54 256 54Z" fill="#FFFFFF"/>
<path d="M256 128C222.16 128 192 194.56 192 256C192 317.44 222.16 384 256 384C289.84 384 320 317.44 320 256C320 194.56 289.84 128 256 128Z" fill="#FFC107"/>
</svg>
